<?xml version="1.0" encoding="UTF-8"?>
<svg version="1.1" xmlns="http://www.w3.org/2000/svg" width="682" height="700">
<path d="M0 0 C225.06 0 450.12 0 682 0 C682 231 682 462 682 700 C456.94 700 231.88 700 0 700 C0 469 0 238 0 0 Z " fill="#FEFEFE" transform="translate(0,0)"/>
<path d="M0 0 C4.51364193 0.72990529 8.67571599 2.23443032 12.9453125 3.81640625 C13.73229019 4.10477356 14.51926788 4.39314087 15.33009338 4.69024658 C17.92974779 5.64402827 20.52738043 6.60319173 23.125 7.5625 C24.93977306 8.22964741 26.75463453 8.89655438 28.56958008 9.56323242 C44.15064787 15.2930017 59.70966976 21.0828312 75.26025391 26.89477539 C76.57545265 27.38575714 76.57545265 27.38575714 77.91722107 27.88665771 C79.54895796 28.49590032 81.18038121 29.10598397 82.81141663 29.71710205 C86.85082005 31.22472371 90.89916377 32.66547083 95 34 C98.17710376 35.03428975 101.34094561 36.09927209 104.5 37.1875 C105.32886719 37.45369141 106.15773438 37.71988281 107.01171875 37.99414062 C107.82253906 38.27837891 108.63335937 38.56261719 109.46875 38.85546875 C110.19513672 39.09934326 110.92152344 39.34321777 111.66992188 39.59448242 C115.70745774 42.0299491 119.3169668 45.42553648 120.55611539 50.0960896 C120.76531902 52.48909877 120.79069412 54.81839552 120.7484436 57.22024536 C120.75639242 58.12768616 120.76434123 59.03512695 120.77253091 59.97006595 C120.7917273 63.00038227 120.76817521 66.02881916 120.74462891 69.05908203 C120.74948678 71.23604528 120.7569274 73.41300407 120.76675415 75.58995056 C120.78555882 81.49748378 120.76672953 87.40435342 120.74008989 93.31183481 C120.71743225 99.50239549 120.72567857 105.69292416 120.72958374 111.8835144 C120.73134959 122.28573416 120.70919649 132.68769325 120.67236328 143.08984375 C120.63009454 155.09533712 120.62299402 167.10033252 120.6354872 179.10590661 C120.64690416 190.67151485 120.63554403 202.23698905 120.61314011 213.80257797 C120.6038805 218.71533578 120.60208644 223.62801117 120.6063118 228.5407753 C120.61009791 234.33738535 120.59371492 240.13360977 120.56219101 245.93013191 C120.55375283 248.05001161 120.55197199 250.16993062 120.55757141 252.28981972 C120.59831775 270.48562251 118.51931496 283.88921874 105.6875 297.75 C92.38124903 310.28915003 76.83367188 311.93683929 59.33984375 311.4453125 C51.20115017 311.0143626 44.47381677 309.26670137 37 306 C36.38737305 305.73767578 35.77474609 305.47535156 35.14355469 305.20507812 C18.03148295 297.75261451 2.87821064 284.41858961 -4.28515625 266.84765625 C-6.9487143 259.12429258 -8.14035726 252.14072118 -8 244 C-8.9075 243.979375 -9.815 243.95875 -10.75 243.9375 C-19.65612235 242.6522669 -28.55692768 235.97829784 -34 229 C-36.17969915 225.7562771 -38.12845547 222.429263 -40 219 C-40.5775 217.96875 -41.155 216.9375 -41.75 215.875 C-45.4648259 207.33090042 -45.21389773 199.12630319 -45 190 C-44.34 190 -43.68 190 -43 190 C-41.37334246 181.67075714 -41.37334246 181.67075714 -44.0625 174.1875 C-45.031875 173.465625 -46.00125 172.74375 -47 172 C-51.43316512 166.85929731 -56 161.04471818 -56 154 C-56.66 154 -57.32 154 -58 154 C-62.46011312 140.61966063 -60.55933383 125.73592841 -55 113 C-50.3924005 104.35726033 -42.4936693 95.82973352 -34 91 C-32.00867089 90.6182678 -30.00853178 90.27732866 -28 90 C-28.04640625 88.74445313 -28.0928125 87.48890625 -28.140625 86.1953125 C-28.5135009 72.00334379 -26.82216267 62.79403982 -17 52 C-12.87029449 47.80619706 -8.76448364 44.59020238 -3 43 C3.61686402 43.31260775 9.93624083 46.42200385 15.99609375 48.8515625 C19.06848873 50.10181725 19.06848873 50.10181725 22.6875 50.875 C33.16954967 54.4349414 42.26801517 63.19504262 47.3125 72.875 C49.46471795 77.46445935 51.07288292 82.01622926 52.26171875 86.94140625 C53.12228865 89.34098474 53.97146184 90.46528259 56 92 C59.72986522 92.26641894 62.44646071 92.1845131 66 91 C68.50340107 83.48979679 67.3506167 75.99314318 64 69 C63.39671875 67.60974609 63.39671875 67.60974609 62.78125 66.19140625 C54.5055366 48.14575342 39.21570574 38.5009501 21.12641907 31.71817017 C20.45177109 31.46957245 19.77712311 31.22097473 19.08203125 30.96484375 C18.40645676 30.71519867 17.73088226 30.46555359 17.03483582 30.20834351 C14.24801636 29.18413539 11.45925751 28.16683362 8.66088867 27.17456055 C6.58588749 26.43506167 4.52141053 25.67090908 2.45703125 24.90234375 C1.23991455 24.46398193 0.02279785 24.02562012 -1.23120117 23.57397461 C-4 22 -4 22 -4.95800781 19.44116211 C-5.00653671 16.61999672 -4.35115342 15.44049165 -3 13 C-2.5914367 11.13609682 -2.23966372 9.25907965 -1.9375 7.375 C-1.09722222 2.19444444 -1.09722222 2.19444444 0 0 Z " fill="#424C86" transform="translate(217,190)"/>
<path d="M0 0 C0.79956055 1.71826172 0.79956055 1.71826172 1.38671875 3.9296875 C1.60263672 4.72503906 1.81855469 5.52039063 2.04101562 6.33984375 C2.25435547 7.17644531 2.46769531 8.01304687 2.6875 8.875 C3.02491211 10.11830078 3.02491211 10.11830078 3.36914062 11.38671875 C4.25220576 14.70962039 5 17.54482494 5 21 C4.02804687 21.32871094 3.05609375 21.65742188 2.0546875 21.99609375 C-36.05305829 34.68774171 -36.05305829 34.68774171 -62 64 C-64.91953371 71.1606315 -67.59393614 79.20263671 -66 87 C-64.7834532 89.28388739 -64.7834532 89.28388739 -63 91 C-59.54250051 91.66676878 -59.54250051 91.66676878 -56 91 C-52.60764766 88.27743569 -51.48111737 86.14984563 -50.625 81.9375 C-47.31029148 68.6432145 -39.58341102 59.51050217 -28.1796875 52.25 C-25.19868848 50.54046651 -22.2031765 49.24204803 -19 48 C-18.34 47.67 -17.68 47.34 -17 47 C-15.00039988 46.960008 -12.99952758 46.95653201 -11 47 C-11 46.34 -11 45.68 -11 45 C0.11964981 41.03988327 0.11964981 41.03988327 6 43 C15.58962834 48.62838513 23.40680115 56.27594096 27.35546875 66.828125 C28.82958985 74.08258765 28.27208646 81.63854977 28 89 C28.72574219 89.10183594 29.45148438 89.20367187 30.19921875 89.30859375 C38.15601452 91.27282367 46.05984968 98.62792205 51 105 C59.51065868 119.35229422 62.36456994 133.65927287 59.0625 150.125 C56.6079997 158.61592689 51.58461364 167.55056034 45.203125 173.69140625 C42.83782955 175.72523475 42.83782955 175.72523475 42.6953125 178.0625 C42.83710937 178.701875 42.97890625 179.34125 43.125 180 C43.25132812 180.639375 43.37765625 181.27875 43.5078125 181.9375 C43.67023438 182.618125 43.83265625 183.29875 44 184 C46.90617525 196.61448533 45.45671513 209.84602197 38.625 220.875 C37.43766479 222.59799371 36.23155643 224.30833189 35 226 C34.236875 227.0725 33.47375 228.145 32.6875 229.25 C26.17492876 235.91402639 17.84148751 241.0528375 9 244 C8.83564453 245.34191406 8.83564453 245.34191406 8.66796875 246.7109375 C6.08874041 266.38017478 -1.59322413 280.85043653 -17.0703125 293.51171875 C-34.44813322 306.0860878 -54.84446522 313.41800576 -76.4609375 310.5390625 C-90.58699407 307.88847793 -102.17551869 301.8074438 -111.0703125 290.328125 C-117.04473821 281.47897562 -119.45917729 272.8391875 -119.40113831 262.22003174 C-119.40793498 261.2887545 -119.41473164 260.35747726 -119.42173427 259.3979795 C-119.44058668 256.30589331 -119.43827727 253.21420727 -119.43579102 250.12207031 C-119.44477551 247.89390051 -119.45498535 245.66573536 -119.46632385 243.43757629 C-119.49274525 237.40694104 -119.49985366 231.37643359 -119.50177121 225.34574604 C-119.50390689 221.5769983 -119.51031746 217.80828285 -119.51826286 214.03954315 C-119.54455324 201.56738713 -119.55852611 189.09529314 -119.55627144 176.62311271 C-119.55615157 175.95229508 -119.5560317 175.28147746 -119.5559082 174.59033203 C-119.55572424 173.58287102 -119.55572424 173.58287102 -119.55553656 172.55505726 C-119.55431541 161.65381631 -119.58307909 150.7528853 -119.6253233 139.85173407 C-119.66841207 128.64390992 -119.68858485 117.43623247 -119.68654197 106.22830844 C-119.68577668 99.94146489 -119.69435038 93.65497306 -119.72607613 87.36820221 C-119.75507399 81.46152632 -119.75538906 75.55553984 -119.73352623 69.64883995 C-119.73038384 67.48083937 -119.73750638 65.31279614 -119.7556076 63.14486885 C-119.77871155 60.18644193 -119.7648792 57.23040783 -119.74171448 54.27203369 C-119.75714517 53.41308667 -119.77257586 52.55413966 -119.78847414 51.66916394 C-119.71220525 47.2659141 -119.27140818 44.75034655 -116.16140652 41.51180649 C-113.17727301 38.85055023 -110.18177261 37.67657931 -106.3125 36.625 C-105.19488281 36.30789062 -104.07726562 35.99078125 -102.92578125 35.6640625 C-100 35 -100 35 -97 35 C-97 34.34 -97 33.68 -97 33 C-94.36 32.67 -91.72 32.34 -89 32 C-89 31.34 -89 30.68 -89 30 C-86.39741676 29.16142312 -83.79314353 28.32896656 -81.1875 27.5 C-80.44951172 27.26152344 -79.71152344 27.02304688 -78.95117188 26.77734375 C-75.86744804 25.80059864 -73.25504191 25 -70 25 C-70 24.34 -70 23.68 -70 23 C-64.555 22.01 -64.555 22.01 -59 21 C-59 20.34 -59 19.68 -59 19 C-58.08645752 18.7304248 -57.17291504 18.46084961 -56.23168945 18.18310547 C-48.30607972 15.79873759 -40.52525462 13.14860545 -32.79296875 10.1953125 C-31.92624542 9.86448669 -31.05952209 9.53366089 -30.16653442 9.19281006 C-26.58732613 7.82188074 -23.01079587 6.4442327 -19.43725586 5.05859375 C-16.78801082 4.03359808 -14.13462744 3.02000278 -11.48046875 2.0078125 C-10.67119431 1.6902298 -9.86191986 1.37264709 -9.02812195 1.04544067 C-3.34000563 -1.11333521 -3.34000563 -1.11333521 0 0 Z " fill="#424D87" transform="translate(474,191)"/>
<path d="M0 0 C3.56210489 1.53310423 7.16635137 2.92081839 10.80029297 4.27636719 C11.47864197 4.5294162 12.15699097 4.78246521 12.855896 5.04318237 C21.58867114 8.29218778 30.34349 11.48144108 39.10009766 14.66552734 C42.01382365 15.725465 44.92660075 16.78798253 47.83935547 17.85058594 C60.53700394 22.4780347 60.53700394 22.4780347 73.34985352 26.77270508 C77.06870206 28.04757698 80.65074211 29.62548879 84.26513672 31.16699219 C88.68252649 32.97747893 93.14768004 34.6378885 97.62841797 36.28417969 C98.43738525 36.58171143 99.24635254 36.87924316 100.07983398 37.18579102 C103.18521945 38.32079185 106.2867332 39.4433757 109.42822266 40.4753418 C113.74265324 41.93027423 118.00716578 43.50817136 122.27685547 45.08886719 C123.20392807 45.43128448 124.13100067 45.77370178 125.08616638 46.12649536 C128.10068032 47.24039764 131.11460756 48.35587544 134.12841797 49.47167969 C135.66276993 50.03943115 135.66276993 50.03943115 137.2281189 50.61865234 C144.40454647 53.27441874 151.57942918 55.93433307 158.75341797 58.59667969 C159.64647644 58.92800903 160.53953491 59.25933838 161.45965576 59.60070801 C166.14007767 61.33765495 170.81925148 63.07787947 175.49615479 64.82427979 C176.87273255 65.33799485 178.24964399 65.85081672 179.62689209 66.36273193 C181.5099153 67.06302029 183.39147929 67.76722877 185.27294922 68.47167969 C186.31555908 68.86097656 187.35816895 69.25027344 188.43237305 69.65136719 C190.75341797 70.59667969 190.75341797 70.59667969 191.75341797 71.59667969 C191.79405629 73.26285084 191.79613897 74.93056064 191.75341797 76.59667969 C175.0867513 85.59667969 175.0867513 85.59667969 167.75341797 85.59667969 C167.76976915 93.10447095 167.82481137 100.61128456 167.90600586 108.11865234 C167.92911779 110.6693691 167.94356548 113.22018037 167.94897461 115.77099609 C167.95831336 119.45046426 167.99941615 123.12845968 168.04638672 126.80761719 C168.04048775 128.50197403 168.04048775 128.50197403 168.0344696 130.2305603 C168.17422584 137.91711727 169.95468087 142.98343572 173.75341797 149.59667969 C174.68029122 152.37729943 174.87535193 154.01719828 174.86694336 156.88452148 C174.86686783 157.74518723 174.8667923 158.60585297 174.86671448 159.49259949 C174.85897255 160.88023247 174.85897255 160.88023247 174.85107422 162.29589844 C174.8489518 163.72117607 174.8489518 163.72117607 174.8467865 165.17524719 C174.84118672 168.21158998 174.82863429 171.24785917 174.81591797 174.28417969 C174.81090294 176.34212133 174.80634004 178.40006413 174.80224609 180.45800781 C174.79121737 185.50426015 174.7739529 190.55045744 174.75341797 195.59667969 C170.86649849 197.54013943 166.02827216 196.78148771 161.75341797 196.78417969 C160.72990234 196.79642578 159.70638672 196.80867187 158.65185547 196.82128906 C157.67474609 196.82322266 156.69763672 196.82515625 155.69091797 196.82714844 C154.79244141 196.83125732 153.89396484 196.83536621 152.96826172 196.83959961 C150.75341797 196.59667969 150.75341797 196.59667969 148.75341797 194.59667969 C148.47926331 192.6257019 148.47926331 192.6257019 148.44702148 190.18212891 C148.43103409 189.26712616 148.41504669 188.35212341 148.39857483 187.40939331 C148.39053078 185.92042038 148.39053078 185.92042038 148.38232422 184.40136719 C148.37329575 183.37995636 148.36426727 182.35854553 148.35496521 181.30618286 C148.34043336 179.13904766 148.33156872 176.97186829 148.32788086 174.8046875 C148.31603906 171.50541779 148.26692751 168.20805129 148.21630859 164.90917969 C148.20683818 162.80241797 148.19960611 160.69564477 148.19482422 158.58886719 C148.1752919 157.60836395 148.15575958 156.62786072 148.13563538 155.61764526 C148.16703774 150.79229559 148.40827447 147.59958845 151.24414062 143.61474609 C154.69332556 138.76316812 154.48305519 134.11344146 154.46044922 128.31542969 C154.47557053 127.26133911 154.49069183 126.20724854 154.50627136 125.12121582 C154.54899924 121.77948362 154.55797234 118.43865734 154.56591797 115.09667969 C154.58907373 112.82061419 154.6144413 110.54457005 154.64208984 108.26855469 C154.70479472 102.71125428 154.73984711 97.15430575 154.75341797 91.59667969 C153.8158667 91.95270264 152.87831543 92.30872559 151.91235352 92.67553711 C134.94116343 99.11795666 117.96369346 105.54164233 100.94091797 111.84667969 C88.20868501 116.56281712 75.48993557 121.31383855 62.77871704 126.08633423 C59.75790456 127.21999594 56.73658393 128.35229236 53.71508789 129.48413086 C43.86997557 133.17266577 34.02777414 136.86841032 24.19458008 140.58862305 C19.51592837 142.35701054 14.83462248 144.11829841 10.15283203 145.87835693 C7.90359082 146.72582043 5.65552117 147.57640051 3.40869141 148.43023682 C0.27657821 149.62009938 -2.85946494 150.79899154 -5.99658203 151.97558594 C-6.91842285 152.32886459 -7.84026367 152.68214325 -8.79003906 153.04612732 C-17.49656954 156.28747214 -23.76820642 157.40259962 -32.55908203 153.92480469 C-33.37218842 153.61979034 -34.1852948 153.314776 -35.02304077 153.0005188 C-37.77065288 151.96542989 -40.50817192 150.90585009 -43.24658203 149.84667969 C-45.23371078 149.09313542 -47.22152807 148.34140483 -49.20996094 147.59130859 C-53.68532111 145.9005306 -58.15684984 144.20004579 -62.62646484 142.49414062 C-71.03691675 139.28940784 -79.46512863 136.13266933 -87.89501953 132.97949219 C-89.43682306 132.40264092 -90.97862194 131.82577725 -92.52041626 131.24890137 C-94.8594797 130.37372439 -97.19854478 129.49855186 -99.53764534 128.62347412 C-108.15163959 125.40033099 -116.76166614 122.16663529 -125.37158203 118.93261719 C-134.91142469 115.34960566 -144.45187122 111.7682717 -153.99658203 108.19824219 C-163.4170177 104.67437534 -172.83404334 101.14158934 -182.24658203 97.59667969 C-183.27064148 97.21106873 -184.29470093 96.82545776 -185.34979248 96.42816162 C-192.27439713 93.81975569 -199.19687646 91.2057966 -206.11724854 88.58618164 C-208.39407249 87.72488802 -210.67136875 86.86484181 -212.94915771 86.00610352 C-216.1082825 84.81466952 -219.26554096 83.61841735 -222.42236328 82.42089844 C-223.37336411 82.06331955 -224.32436493 81.70574066 -225.30418396 81.33732605 C-226.61432213 80.83861748 -226.61432213 80.83861748 -227.95092773 80.32983398 C-229.09232964 79.89806099 -229.09232964 79.89806099 -230.25679016 79.45756531 C-232.24658203 78.59667969 -232.24658203 78.59667969 -235.24658203 76.59667969 C-235.43408203 73.47167969 -235.43408203 73.47167969 -235.24658203 70.59667969 C-229.00328816 67.98891566 -222.67864651 65.62466253 -216.30908203 63.34667969 C-215.56343994 63.07645996 -214.81779785 62.80624023 -214.04956055 62.52783203 C-210.99484741 61.44543966 -208.51234531 60.59667969 -205.24658203 60.59667969 C-205.24658203 59.93667969 -205.24658203 59.27667969 -205.24658203 58.59667969 C-202.70644294 57.77912898 -200.16464972 56.96752782 -197.62158203 56.15917969 C-196.90873047 55.92908203 -196.19587891 55.69898438 -195.46142578 55.46191406 C-191.40482352 54.17794362 -187.47718578 53.17721995 -183.24658203 52.59667969 C-183.24658203 51.93667969 -183.24658203 51.27667969 -183.24658203 50.59667969 C-179.61658203 49.93667969 -175.98658203 49.27667969 -172.24658203 48.59667969 C-172.24658203 47.93667969 -172.24658203 47.27667969 -172.24658203 46.59667969 C-169.60658203 46.26667969 -166.96658203 45.93667969 -164.24658203 45.59667969 C-164.24658203 44.93667969 -164.24658203 44.27667969 -164.24658203 43.59667969 C-160.61658203 42.93667969 -156.98658203 42.27667969 -153.24658203 41.59667969 C-153.24658203 40.93667969 -153.24658203 40.27667969 -153.24658203 39.59667969 C-149.61658203 38.93667969 -145.98658203 38.27667969 -142.24658203 37.59667969 C-142.24658203 36.93667969 -142.24658203 36.27667969 -142.24658203 35.59667969 C-139.33325124 34.58677276 -136.41542884 33.59052017 -133.49658203 32.59667969 C-132.25908203 32.16742188 -132.25908203 32.16742188 -130.99658203 31.72949219 C-130.19736328 31.45878906 -129.39814453 31.18808594 -128.57470703 30.90917969 C-127.84155273 30.6578125 -127.10839844 30.40644531 -126.35302734 30.14746094 C-124.24658203 29.59667969 -124.24658203 29.59667969 -120.24658203 29.59667969 C-120.24658203 28.93667969 -120.24658203 28.27667969 -120.24658203 27.59667969 C-116.61658203 26.93667969 -112.98658203 26.27667969 -109.24658203 25.59667969 C-109.24658203 24.93667969 -109.24658203 24.27667969 -109.24658203 23.59667969 C-103.80158203 22.60667969 -103.80158203 22.60667969 -98.24658203 21.59667969 C-98.24658203 20.93667969 -98.24658203 20.27667969 -98.24658203 19.59667969 C-97.19599609 19.28214844 -96.14541016 18.96761719 -95.06298828 18.64355469 C-86.15463299 16.01422463 -86.15463299 16.01422463 -77.55908203 12.53417969 C-74.33917947 11.01682301 -71.16253597 9.91360588 -67.74658203 8.90917969 C-59.61279749 6.51175155 -51.68977542 3.53929958 -43.74072266 0.59399414 C-42.68820312 0.20816162 -41.63568359 -0.1776709 -40.55126953 -0.57519531 C-39.12790283 -1.10258301 -39.12790283 -1.10258301 -37.67578125 -1.640625 C-35.24658203 -2.40332031 -35.24658203 -2.40332031 -32.24658203 -2.40332031 C-32.24658203 -3.06332031 -32.24658203 -3.72332031 -32.24658203 -4.40332031 C-20.62528017 -7.99535907 -10.93760783 -4.72773123 0 0 Z " fill="#424D87" transform="translate(367.24658203125,58.4033203125)"/>
<path d="M0 0 C7.92 0 15.84 0 24 0 C29.6264373 11.25287459 29.6264373 11.25287459 31.38769531 15.64575195 C31.98290985 17.1219677 31.98290985 17.1219677 32.59014893 18.62800598 C32.99868103 19.65439682 33.40721313 20.68078766 33.828125 21.73828125 C34.26259949 22.82207565 34.69707397 23.90587006 35.14471436 25.02250671 C36.05432291 27.29483833 36.96178659 29.56802961 37.8671875 31.84204102 C39.2539621 35.32244373 40.64996888 38.79904379 42.046875 42.27539062 C42.93284501 44.49196641 43.81828062 46.70875588 44.703125 48.92578125 C45.11975403 49.96229324 45.53638306 50.99880524 45.96563721 52.06672668 C46.34983826 53.03510971 46.73403931 54.00349274 47.12988281 55.0012207 C47.63687714 56.27168999 47.63687714 56.27168999 48.15411377 57.56782532 C49.01098369 60.03158137 49.55049298 62.43334501 50 65 C50.66 65 51.32 65 52 65 C52.10828125 64.34257813 52.2165625 63.68515625 52.328125 63.0078125 C53.18289138 59.18124206 54.4368616 55.5655411 55.75 51.875 C56.1531543 50.73514648 56.1531543 50.73514648 56.56445312 49.57226562 C58.36860362 44.55220621 60.43660933 39.74229344 62.72265625 34.921875 C64.62926408 30.56058247 66.1369591 26.0745974 67.68603516 21.57641602 C70.21275078 14.27801346 73.08379585 7.1516435 76 0 C84.25 0 92.5 0 101 0 C101 31.68 101 63.36 101 96 C94.73 96 88.46 96 82 96 C81.67 75.21 81.34 54.42 81 33 C78.03 40.59 75.06 48.18 72 56 C70.35 59.63 68.7 63.26 67 67 C65.76672868 70.36906135 64.57192155 73.72440459 63.4375 77.125 C61.26956847 83.59358455 58.85129403 89.79827951 56 96 C52.04 96 48.08 96 44 96 C43.608125 94.411875 43.21625 92.82375 42.8125 91.1875 C41.43808821 86.13508482 39.56003104 81.59584386 37.3203125 76.875 C34.94023834 71.6923533 33.01121914 66.33382883 31 61 C30.1879986 58.91647228 29.37549597 56.83313984 28.5625 54.75 C25.57572742 46.88240392 22.80083264 38.93569247 20 31 C19.67 52.45 19.34 73.9 19 96 C12.73 96 6.46 96 0 96 C0 64.32 0 32.64 0 0 Z " fill="#465088" transform="translate(60,547)"/>
<path d="M0 0 C7.59 0 15.18 0 23 0 C29.37982559 15.80405917 35.50514859 31.69493145 41.5625 47.625 C42.93039133 51.21901986 44.29877532 54.81285096 45.66781616 58.40643311 C46.54944472 60.72096734 47.43034015 63.03578098 48.31045532 65.35089111 C50.2510938 70.44861128 52.20403298 75.54007168 54.21044922 80.61230469 C54.54173325 81.45159515 54.87301727 82.29088562 55.21434021 83.15560913 C55.81915727 84.68236563 56.42826565 86.20743251 57.0426178 87.7303772 C58.19934959 90.64972565 59 92.8276753 59 96 C52.07 96 45.14 96 38 96 C37.28385417 93.23307292 36.56770833 90.46614583 35.8515625 87.69921875 C35.08086826 84.8194184 35.08086826 84.8194184 33 82 C32.01 78.04 32.01 78.04 31 74 C11.695 73.505 11.695 73.505 -8 73 C-8.33 74.98 -8.66 76.96 -9 79 C-9.42901126 80.44769622 -9.89678163 81.88471514 -10.41015625 83.3046875 C-10.77185913 84.31764893 -10.77185913 84.31764893 -11.14086914 85.35107422 C-11.44500732 86.18396973 -11.74914551 87.01686523 -12.0625 87.875 C-13.031875 90.55625 -14.00125 93.2375 -15 96 C-21.6 96 -28.2 96 -35 96 C-33.88613861 88.2029703 -33.88613861 88.2029703 -31.6875 83.8125 C-29.34245407 78.89263418 -27.56069554 73.94607857 -25.89453125 68.76171875 C-24.96733019 65.8991373 -23.93512797 63.09797304 -22.859375 60.2890625 C-20.831435 54.88736778 -18.93183866 49.43663686 -17 44 C-16.34 44 -15.68 44 -15 44 C-15.061875 43.34 -15.12375 42.68 -15.1875 42 C-14.98801672 38.80826746 -14.1165313 36.29045139 -12.93359375 33.3359375 C-11.83145804 30.5782925 -10.82130695 27.79306693 -9.8125 25 C-9.46832031 24.05125 -9.12414062 23.1025 -8.76953125 22.125 C-8.38861328 21.073125 -8.38861328 21.073125 -8 20 C-7.34 20 -6.68 20 -6 20 C-5.896875 18.845 -5.79375 17.69 -5.6875 16.5 C-4.93980899 10.47574671 -2.69771202 5.39542404 0 0 Z " fill="#434D86" transform="translate(536,547)"/>
<path d="M0 0 C7.15968843 4.57732403 12.32089173 9.75658994 15 18 C17.48291201 29.96147394 17.82686226 44.61143595 11.62890625 55.3828125 C6.73736547 62.49138256 -0.51739509 67.23496196 -9 69 C-12.55895885 69.27026764 -16.11935064 69.27712509 -19.6875 69.3125 C-20.64333984 69.34150391 -21.59917969 69.37050781 -22.58398438 69.40039062 C-32.24556982 69.48600795 -39.22721962 66.48213591 -46.28125 59.91796875 C-48.97601988 56.91085054 -50.54912139 53.73904841 -52 50 C-52.52078125 48.79859375 -53.0415625 47.5971875 -53.578125 46.359375 C-55.33288974 41.62944907 -55.49871208 37.19397869 -55.4375 32.1875 C-55.42847656 31.30602295 -55.41945313 30.4245459 -55.41015625 29.51635742 C-55.12936205 18.93685107 -52.50344392 11.57533073 -45.078125 3.875 C-33.6355599 -6.44911889 -13.28955426 -7.38068078 0 0 Z " fill="#434D86" transform="translate(432,575)"/>
<path d="M0 0 C1.37671875 0.01353516 1.37671875 0.01353516 2.78125 0.02734375 C5.02111556 0.05067568 7.26041183 0.08340765 9.5 0.125 C9.5 0.785 9.5 1.445 9.5 2.125 C10.20125 2.2075 10.9025 2.29 11.625 2.375 C18.15384015 4.07817569 22.83657316 8.64015026 26.5 14.125 C31.62354007 23.43908982 30.5 30.9962052 30.5 42.125 C14.66 42.125 -1.18 42.125 -17.5 42.125 C-15.21531941 51.3717482 -15.21531941 51.3717482 -9.5 57.125 C-4.6340718 58.74697607 0.75952144 59.1351764 5.640625 57.3359375 C8.77058546 55.61314414 10.50688055 54.11467917 12.5 51.125 C15.45064148 50.9041436 18.18368231 50.84439011 21.125 50.9375 C22.32769531 50.95780273 22.32769531 50.95780273 23.5546875 50.97851562 C25.53674378 51.01390949 27.51845551 51.06771766 29.5 51.125 C28.45988438 58.4669926 25.30663537 63.1199712 19.55834961 67.71459961 C13.25671342 72.03253962 6.00125617 72.65323396 -1.4375 72.5625 C-2.31631836 72.55420166 -3.19513672 72.54590332 -4.10058594 72.53735352 C-13.70817059 72.28672863 -20.65869415 69.83038888 -27.7421875 63.19140625 C-37.02064789 52.28406059 -36.41521108 38.63586744 -35.5 25.125 C-33.83058228 15.82252172 -28.77714765 9.58311937 -21.5625 3.75 C-14.55380557 0.03110092 -7.75449804 -0.14652395 0 0 Z " fill="#424C85" transform="translate(207.5,571.875)"/>
<path d="M0 0 C5.49657594 1.13651006 8.05099598 3.75441337 11.3125 8.25 C15.03034383 16.35338207 14.1364876 27.81733141 11.375 36.125 C9.33892993 40.88067796 6.68324916 45.3897744 3 49.0625 C2.34 49.0625 1.68 49.0625 1 49.0625 C1.44730469 49.52398437 1.89460938 49.98546875 2.35546875 50.4609375 C10.17709972 58.89962677 13.79341792 66.19857369 13.66210938 77.72973633 C13.16504325 87.20242648 8.61965494 94.33927852 1.734375 100.69140625 C-1.70151506 103.40761663 -4.6015049 105.0625 -9 105.0625 C-9 105.7225 -9 106.3825 -9 107.0625 C-16.22007812 109.68798295 -24.7806674 110.68746963 -32.0625 107.75 C-34.6220579 106.27961567 -36.18712501 105.32332375 -38 103.0625 C-38.43359375 100.90625 -38.43359375 100.90625 -38.4375 98.5625 C-38.46650391 97.40234375 -38.46650391 97.40234375 -38.49609375 96.21875 C-38 94.0625 -38 94.0625 -36.49609375 92.28125 C-32.31701546 90.24076107 -27.90408891 90.94379745 -23.375 91.1796875 C-18.39849216 91.337951 -15.40042579 90.65862141 -11 88.0625 C-10.01 87.7325 -9.02 87.4025 -8 87.0625 C-6.78130071 84.55802484 -6.78130071 84.55802484 -6 82.0625 C-5.34 82.0625 -4.68 82.0625 -4 82.0625 C-3.60130939 76.55835464 -3.24929386 71.43463089 -6.5 66.66015625 C-13.58044398 59.11874587 -22.16212553 58.06183262 -32 57.0625 C-43.531414 55.48326242 -53.06890869 51.76113448 -62 44.0625 C-64.11553473 40.63953852 -64.57469142 38.08533991 -64 34.0625 C-61.875 31.1875 -61.875 31.1875 -59 29.0625 C-54.07774133 28.47506995 -51.65924549 29.53299545 -47.6875 32.375 C-39.59163342 37.72173542 -33.44566825 39.31543433 -23.8125 39.5 C-22.6531897 39.53371704 -22.6531897 39.53371704 -21.47045898 39.56811523 C-16.18001001 39.54586008 -13.20902951 38.52353932 -9 35.0625 C-4.94693087 30.57126124 -3.65798542 27.24922592 -3.703125 21.1328125 C-4.2327272 17.43953401 -6.40716277 14.65533723 -9 12.0625 C-9.49565567 7.76681751 -9.42800364 5.70450546 -7 2.0625 C-3.95928076 0.03535384 -3.40937092 -0.26474282 0 0 Z " fill="#F9F9FB" transform="translate(443,356.9375)"/>
<path d="M0 0 C2.8125 0.9375 2.8125 0.9375 5 3 C6.00915462 6.04506541 6.30913467 8.8074819 6 12 C4.125 14.875 4.125 14.875 2 17 C0.7409813 20.7770561 0.26344863 24.09488803 1 28 C3.62641032 32.95316309 6.88742993 36.60258014 12 39 C23.96563235 40.45474829 34.4151596 38.39388297 44.8125 32.25 C48.70611318 29.97579194 51.42556107 29.20827019 56 30 C58.9375 31.5625 58.9375 31.5625 61 34 C61.8125 37.3125 61.8125 37.3125 61 41 C53.67102179 50.86677365 38.66188447 56.06107018 27 58 C25.6364389 58.15632542 24.27173634 58.30290151 22.90625 58.44140625 C21.84253174 58.55295044 21.84253174 58.55295044 20.75732422 58.66674805 C18.72870487 58.86487174 16.69632994 59.02335924 14.6640625 59.1796875 C9.33869607 60.37193372 6.72237783 63.0479718 3.125 67.125 C1.32730338 71.71911359 1.37096115 76.13924525 2 81 C4.32401052 86.11282315 7.81045057 88.96768989 13 91 C16.06976107 91.36076326 19.0463243 91.20422393 22.125 91 C30.11743434 90.47504536 30.11743434 90.47504536 34.0078125 92.7890625 C36 95 36 95 36.75 98.375 C35.83879272 102.77916851 34.40317891 104.07889126 31.01953125 106.8359375 C25.06641672 110.26732653 16.22789973 109.81305764 9.6640625 108.55078125 C8.08957899 108.09771559 6.53973238 107.55990269 5 107 C5 106.34 5 105.68 5 105 C4.34 104.95875 3.68 104.9175 3 104.875 C-4.65992147 102.64085624 -9.08160537 97.24420596 -12.8125 90.44140625 C-17.08907302 81.64910975 -17.1253547 72.67099457 -14.1328125 63.4609375 C-12.45058823 59.80645029 -10.06594888 56.92202449 -7.42578125 53.91015625 C-5.70091852 51.99657943 -5.70091852 51.99657943 -6 49 C-7.21290567 47.13203738 -7.21290567 47.13203738 -8.8125 45.25 C-15.73199858 36.35583319 -16.76205213 27.05644049 -16 16 C-14.72308327 10.47843593 -12.21138224 5.21138224 -8.1875 1.1875 C-5.22434359 -0.42107062 -3.33240631 -0.40804975 0 0 Z " fill="#F9F9FB" transform="translate(251,357)"/>
<path d="M0 0 C6.19057378 3.14847051 11.52683501 8.16489454 14.41186523 14.5300293 C15.75637049 19.80610237 15.58085632 24.91355548 15.53125 30.3359375 C15.5284201 31.5038382 15.52559021 32.67173889 15.52267456 33.87503052 C15.51150723 37.59387591 15.48640854 41.31247777 15.4609375 45.03125 C15.45090326 47.55728818 15.44177819 50.08333015 15.43359375 52.609375 C15.41157911 58.79176006 15.37707258 64.97396378 15.3359375 71.15625 C9.3959375 71.15625 3.4559375 71.15625 -2.6640625 71.15625 C-2.67864502 69.72837158 -2.69322754 68.30049316 -2.70825195 66.8293457 C-2.76626476 61.52700881 -2.84349816 56.22509525 -2.92651367 50.9230957 C-2.95974884 48.62922033 -2.98778514 46.33526346 -3.01049805 44.04125977 C-3.04406924 40.74199727 -3.09638785 37.4434807 -3.15234375 34.14453125 C-3.15873367 33.12039627 -3.1651236 32.09626129 -3.17170715 31.04109192 C-3.26507414 24.09061938 -3.26507414 24.09061938 -6.6640625 18.15625 C-11.09259974 15.94198138 -16.85614441 16.61409319 -21.6640625 17.15625 C-25.21829873 19.68522578 -26.30154671 21.06870262 -27.6640625 25.15625 C-27.77807202 26.67459207 -27.84018927 28.19714591 -27.86938477 29.71948242 C-27.88932999 30.64021042 -27.90927521 31.56093842 -27.92982483 32.50956726 C-27.95489357 33.99563225 -27.95489357 33.99563225 -27.98046875 35.51171875 C-28.00124985 36.52849197 -28.02203094 37.5452652 -28.04344177 38.59284973 C-28.10886298 41.84308063 -28.16778787 45.09339277 -28.2265625 48.34375 C-28.26975477 50.54623238 -28.31336929 52.74870653 -28.35742188 54.95117188 C-28.46453682 60.35278117 -28.56582539 65.75447225 -28.6640625 71.15625 C-34.6040625 71.15625 -40.5440625 71.15625 -46.6640625 71.15625 C-46.6640625 47.72625 -46.6640625 24.29625 -46.6640625 0.15625 C-41.7140625 0.15625 -36.7640625 0.15625 -31.6640625 0.15625 C-31.0040625 3.12625 -30.3440625 6.09625 -29.6640625 9.15625 C-28.6328125 8.063125 -27.6015625 6.97 -26.5390625 5.84375 C-19.45340199 -1.66705014 -9.74043544 -3.0849473 0 0 Z " fill="#424D86" transform="translate(296.6640625,571.84375)"/>
<path d="M0 0 C3 2 3 2 3.546875 4.1796875 C4.31240634 14.33769957 4.19828672 23.44495577 -0.0625 32.84375 C-0.9512745 34.88793135 -1.52582963 36.82671915 -2 39 C-1.175 39.268125 -0.35 39.53625 0.5 39.8125 C4 41 4 41 7.58203125 42.57421875 C12.48156146 44.42070453 17.01948064 44.23123129 22.1875 44 C31.01843236 43.61011336 31.01843236 43.61011336 35.078125 45.22265625 C37 47 37 47 37.62890625 49.12109375 C37.45110132 55.32334802 37.45110132 55.32334802 35.375 58.4375 C27.14644512 63.85102295 15.63139923 63.09433704 6.28125 61.27734375 C0.45648978 59.59660102 -4.45586764 57.54646892 -9.21875 53.7578125 C-11.07643093 52.75077114 -11.07643093 52.75077114 -13.44140625 53.66015625 C-16.02018613 55.01057075 -18.14638362 56.52169673 -20.4375 58.3125 C-30.39172683 65.46103771 -41.97714166 68.14323728 -54.0625 68.3125 C-55.10374023 68.35600586 -55.10374023 68.35600586 -56.16601562 68.40039062 C-59.84062224 68.44575614 -61.8185967 68.11715127 -64.93359375 66.10546875 C-67.99060082 62.99067326 -67.99060082 62.99067326 -68.01953125 59.94140625 C-67.95121094 59.15636719 -67.88289063 58.37132812 -67.8125 57.5625 C-67.72935547 56.38880859 -67.72935547 56.38880859 -67.64453125 55.19140625 C-67 53 -67 53 -65.48046875 51.23828125 C-61.90263395 49.45218104 -58.41095957 49.64323008 -54.5 49.625 C-43.12246797 49.27195146 -33.44175677 45.92226404 -25 38 C-24.34 37.01 -23.68 36.02 -23 35 C-22.34 35 -21.68 35 -21 35 C-20.7525 34.175 -20.505 33.35 -20.25 32.5 C-19.30125689 29.8435193 -18.36187104 27.78684014 -17.015625 25.36328125 C-14.38708433 20.17901597 -13.87801554 14.98049449 -13.22265625 9.27148438 C-12.43306581 3.47628044 -12.43306581 3.47628044 -10.16015625 0.9765625 C-6.54906234 -0.65593927 -3.95035431 -0.31352018 0 0 Z " fill="#F8F9FA" transform="translate(460,273)"/>
<path d="M0 0 C2.15234375 0.96484375 2.15234375 0.96484375 4 3 C4.88521538 5.9127308 5.25104751 8.85940877 5.625 11.875 C7.1798066 23.40648229 11.42062855 34.04289231 20.9375 41.5 C29.66174303 47.3333696 37.7215949 49.19954072 48.06835938 49.34179688 C51.6540296 49.48629905 53.87859624 49.92651878 56.96875 51.796875 C59 54 59 54 59.5625 57.9375 C59.31346099 61.98249727 57.93167187 64.15455378 55 67 C46.90322819 71.04838591 33.61546078 67.69684905 25.484375 65.26953125 C17.74374116 62.44923305 11.06068403 58.56927722 5 53 C2.09017245 54.1462957 -0.76988734 55.34512191 -3.625 56.625 C-7 58 -7 58 -10 58 C-10 58.66 -10 59.32 -10 60 C-15.91677131 61.72124256 -21.49741317 62.24346425 -27.625 62.3125 C-28.34099365 62.32990234 -29.0569873 62.34730469 -29.79467773 62.36523438 C-35.59496363 62.35988911 -40.49826576 61.25963092 -44.9375 57.25 C-46.50478983 53.93103329 -46.51673673 51.61715711 -46 48 C-43.83573485 45.46535545 -42.15045559 44.13067028 -38.78173828 43.74804688 C-36.1164968 43.75011898 -33.47391712 43.85848982 -30.8125 44 C-23.89794304 44.20291693 -18.20645779 44.28523054 -11.9375 40.97265625 C-9.65912215 39.82887382 -7.50502668 39.41315544 -5 39 C-5.39832031 38.03900391 -5.39832031 38.03900391 -5.8046875 37.05859375 C-10.1164665 26.49945614 -14.80266231 13.40798692 -11 2 C-7.3946611 -0.40355927 -4.20638975 -0.75085268 0 0 Z " fill="#F9F9FB" transform="translate(239,273)"/>
<path d="M0 0 C5.94 0 11.88 0 18 0 C18 5.94 18 11.88 18 18 C24.27 18 30.54 18 37 18 C37 23.28 37 28.56 37 34 C30.73 34 24.46 34 18 34 C18.09711636 38.75103436 18.1999564 43.50123291 18.31738281 48.25170898 C18.35558072 49.8665417 18.39044945 51.48145684 18.421875 53.09643555 C18.46772609 55.42266217 18.52568584 57.74832592 18.5859375 60.07421875 C18.59748871 60.79212082 18.60903992 61.51002289 18.62094116 62.24967957 C18.73693237 66.22115855 19.09177981 69.47809744 21 73 C24.66429368 74.32838668 28.44488911 74.10500122 32.3125 74.0625 C35.1278125 74.0315625 35.1278125 74.0315625 38 74 C38 78.62 38 83.24 38 88 C32.41440476 89.86186508 28.75431706 90.365553 23.0625 90.375 C22.28970703 90.39949219 21.51691406 90.42398438 20.72070312 90.44921875 C14.98966501 90.47828572 11.72044505 89.26292517 7 86 C0.90134371 79.56252947 -0.44223423 73.78435294 -0.29296875 65.2265625 C-0.28872391 64.3028183 -0.28447906 63.3790741 -0.28010559 62.42733765 C-0.26338673 59.4929217 -0.22574716 56.55920644 -0.1875 53.625 C-0.17244438 51.62891621 -0.15875751 49.63282159 -0.14648438 47.63671875 C-0.11350545 42.75754478 -0.06177014 37.87889097 0 33 C-2.97 33 -5.94 33 -9 33 C-9 28.38 -9 23.76 -9 19 C-6.03 19 -3.06 19 0 19 C0 12.73 0 6.46 0 0 Z " fill="#455088" transform="translate(332,554)"/>
<path d="M0 0 C6.6 0 13.2 0 20 0 C20 32.01 20 64.02 20 97 C13.07 97 6.14 97 -1 97 C-1.02254926 84.50042579 -1.04091406 72.00086497 -1.05181217 59.50127506 C-1.05704144 53.69786387 -1.06413987 47.89446725 -1.07543945 42.09106445 C-1.08626678 36.49549147 -1.0922765 30.89993255 -1.09487724 25.3043499 C-1.09673177 23.16441056 -1.10035291 21.02447204 -1.10573006 18.88453865 C-1.11293844 15.89835034 -1.11399103 12.91222093 -1.11352539 9.92602539 C-1.11712067 9.03194977 -1.12071594 8.13787415 -1.12442017 7.21670532 C-1.11405216 1.11405216 -1.11405216 1.11405216 0 0 Z " fill="#424D88" transform="translate(605,546)"/>
<path d="M0 0 C1 1 1 1 1.09765625 4.37890625 C1.09098369 5.77347077 1.07902532 7.16801743 1.0625 8.5625 C1.05798828 9.27341797 1.05347656 9.98433594 1.04882812 10.71679688 C1.03700864 12.47790013 1.01907263 14.23896036 1 16 C0.29875 15.95359375 -0.4025 15.9071875 -1.125 15.859375 C-7.60104877 15.61300358 -12.85922187 15.74848614 -18 20 C-21.88215667 26.02641468 -22.59949967 32.05561083 -22.609375 39.06640625 C-22.62591125 39.98590561 -22.64244751 40.90540497 -22.65948486 41.85276794 C-22.70761779 44.75608224 -22.72925809 47.65887417 -22.75 50.5625 C-22.77818876 52.54494767 -22.80812021 54.52737137 -22.83984375 56.50976562 C-22.91661154 61.34007603 -22.95745298 66.16878561 -23 71 C-28.94 71 -34.88 71 -41 71 C-41 47.9 -41 24.8 -41 1 C-35.72 1 -30.44 1 -25 1 C-24.67 3.64 -24.34 6.28 -24 9 C-23.13375 7.8553125 -23.13375 7.8553125 -22.25 6.6875 C-16.17847187 -0.56460304 -9.01495229 -0.57722858 0 0 Z " fill="#465089" transform="translate(501,572)"/>
<path d="M0 0 C3.19703637 2.80795423 4.73386976 4.49409233 5.48046875 8.71875 C5.67380658 11.97258446 5.68174175 15.17863187 5.625 18.4375 C5.64433594 19.54416016 5.66367187 20.65082031 5.68359375 21.79101562 C5.6412951 28.86757927 4.88814429 32.78885058 0 38 C-5.45339965 41.31481155 -10.77327075 41.77063481 -17 41 C-20.62182146 39.61712271 -23.66709007 38.14942841 -26 35 C-28.3656828 29.52663056 -28.33291635 24.35540809 -28.3125 18.5 C-28.32861328 17.57574219 -28.34472656 16.65148437 -28.36132812 15.69921875 C-28.36513693 10.3745028 -28.00910787 6.58565003 -25 2 C-17.95002705 -4.68843588 -8.28774729 -4.78139267 0 0 Z " fill="#FAFAFC" transform="translate(424,589)"/>
<path d="M0 0 C6.6 0 13.2 0 20 0 C20 32.01 20 64.02 20 97 C13.07 97 6.14 97 -1 97 C-1.02254926 84.50042579 -1.04091406 72.00086497 -1.05181217 59.50127506 C-1.05704144 53.69786387 -1.06413987 47.89446725 -1.07543945 42.09106445 C-1.08626678 36.49549147 -1.0922765 30.89993255 -1.09487724 25.3043499 C-1.09673177 23.16441056 -1.10035291 21.02447204 -1.10573006 18.88453865 C-1.11293844 15.89835034 -1.11399103 12.91222093 -1.11352539 9.92602539 C-1.11712067 9.03194977 -1.12071594 8.13787415 -1.12442017 7.21670532 C-1.11405216 1.11405216 -1.11405216 1.11405216 0 0 Z M2 4 C2 33.7 2 63.4 2 94 C6.62 94 11.24 94 16 94 C16 64.3 16 34.6 16 4 C11.38 4 6.76 4 2 4 Z " fill="#4E5489" transform="translate(605,546)"/>
<path d="M0 0 C2.78205254 5.136097 4.59398381 10.70570666 6.375 16.25 C7.92281055 21.00046111 9.89623575 25.53784274 11.9140625 30.10546875 C13 33 13 33 14 39 C5.09 39 -3.82 39 -13 39 C-12.00216861 35.00867444 -10.79370074 31.11929867 -9.53125 27.20703125 C-9.29088013 26.46039719 -9.05051025 25.71376312 -8.80285645 24.94450378 C-8.29588164 23.37170722 -7.78817549 21.79914622 -7.27978516 20.22680664 C-6.49974857 17.81172156 -5.72441036 15.39515953 -4.94921875 12.97851562 C-4.45601675 11.45042798 -3.96253685 9.92243 -3.46875 8.39453125 C-3.23643677 7.66853226 -3.00412354 6.94253326 -2.76477051 6.1945343 C-1.11434633 1.11434633 -1.11434633 1.11434633 0 0 Z " fill="#F4F4F8" transform="translate(547,565)"/>
<path d="M0 0 C2.63121001 2.63121001 2.2398976 4.51350107 2.25816262 8.09476721 C2.25233693 8.956623 2.24651125 9.81847879 2.24050903 10.70645142 C2.24221788 11.61879244 2.24392673 12.53113347 2.24568737 13.47112119 C2.2489975 16.54674382 2.23795357 19.62215118 2.22705078 22.69775391 C2.226487 24.89506526 2.22680259 27.09237698 2.22793579 29.28968811 C2.22851158 35.27081662 2.21672074 41.25186554 2.20278788 47.23297548 C2.19031813 53.47769045 2.18911299 59.72240707 2.18673706 65.96713257 C2.18121937 76.45368744 2.16871168 86.94021759 2.15087891 97.42675781 C2.13252806 108.22916517 2.11836767 119.03156458 2.10986328 129.83398438 C2.10933783 130.49955894 2.10881239 131.16513351 2.10827102 131.850877 C2.10566099 135.18978357 2.10313807 138.5286902 2.10064721 141.86759686 C2.07972021 169.57841834 2.04452284 197.28920711 2 225 C1.67 225 1.34 225 1 225 C1 152.07 1 79.14 1 4 C0.34 4 -0.32 4 -1 4 C-1 77.26 -1 150.52 -1 226 C-1.33 226 -1.66 226 -2 226 C-2 152.08 -2 78.16 -2 2 C-1.34 2 -0.68 2 0 2 C0 1.34 0 0.68 0 0 Z " fill="#777EA8" transform="translate(335,236)"/>
<path d="M0 0 C4.0793643 2.81861589 6.32050929 6.2695143 7.75 11 C7.75 12.32 7.75 13.64 7.75 15 C-2.81 15 -13.37 15 -24.25 15 C-23.25 5 -23.25 5 -19.9375 1.4375 C-14.05888364 -3.06391339 -6.44955972 -3.58576268 0 0 Z " fill="#F2F3F7" transform="translate(214.25,587)"/>
<path d="M0 0 C4.62 0 9.24 0 14 0 C14 0.66 14 1.32 14 2 C10.04 2 6.08 2 2 2 C2 23.78 2 45.56 2 68 C6.29 68 10.58 68 15 68 C14.98428955 66.38774536 14.98428955 66.38774536 14.96826172 64.74291992 C14.93207221 60.75662565 14.90910337 56.77034592 14.89013672 52.78393555 C14.88007674 51.05832477 14.86642724 49.33273105 14.84912109 47.60717773 C14.82487246 45.1273986 14.81351699 42.64784477 14.8046875 40.16796875 C14.79436493 39.39599655 14.78404236 38.62402435 14.77340698 37.82865906 C14.77260578 34.00718524 14.82757405 32.25863893 17 29 C17 42.53 17 56.06 17 70 C11.39 70 5.78 70 0 70 C0 46.9 0 23.8 0 0 Z " fill="#283173" transform="translate(460,573)"/>
<path d="M0 0 C7.59 0 15.18 0 23 0 C23 31.35 23 62.7 23 95 C18.38 95 13.76 95 9 95 C9 94.67 9 94.34 9 94 C12.96 94 16.92 94 21 94 C21 63.64 21 33.28 21 2 C14.07 2 7.14 2 0 2 C0 1.34 0 0.68 0 0 Z " fill="#283074" transform="translate(137,547)"/>
<path d="M0 0 C4.62 0 9.24 0 14 0 C14 0.66 14 1.32 14 2 C10.04 2 6.08 2 2 2 C2 23.78 2 45.56 2 68 C6.62 68 11.24 68 16 68 C16 54.14 16 40.28 16 26 C16.33 26 16.66 26 17 26 C17 40.52 17 55.04 17 70 C11.39 70 5.78 70 0 70 C0 46.9 0 23.8 0 0 Z " fill="#272F72" transform="translate(250,573)"/>
<path d="M0 0 C5.61 0 11.22 0 17 0 C17 5.94 17 11.88 17 18 C16.67 18 16.34 18 16 18 C16 12.39 16 6.78 16 1 C11.38 1 6.76 1 2 1 C2.02320313 2.20398438 2.04640625 3.40796875 2.0703125 4.6484375 C2.08906863 6.22395215 2.10726899 7.79947348 2.125 9.375 C2.15013672 10.56609375 2.15013672 10.56609375 2.17578125 11.78125 C2.19335473 13.85492015 2.10335168 15.92883241 2 18 C0 20 0 20 -3.625 20.125 C-4.73875 20.08375 -5.8525 20.0425 -7 20 C-7 23.3 -7 26.6 -7 30 C-5.88625 29.95875 -4.7725 29.9175 -3.625 29.875 C0 30 0 30 2 32 C2.24050903 33.83499146 2.24050903 33.83499146 2.22705078 36.08251953 C2.22682419 37.34360031 2.22682419 37.34360031 2.22659302 38.63015747 C2.21627045 39.53853363 2.20594788 40.44690979 2.1953125 41.3828125 C2.1924826 42.31221649 2.18965271 43.24162048 2.18673706 44.19918823 C2.17552069 47.1745885 2.1504136 50.14969035 2.125 53.125 C2.11497208 55.13931858 2.1058459 57.15364186 2.09765625 59.16796875 C2.07557661 64.11209456 2.04103693 69.05599665 2 74 C1.34 74 0.68 74 0 74 C0 60.14 0 46.28 0 32 C-2.97 32 -5.94 32 -9 32 C-9 27.38 -9 22.76 -9 18 C-6.03 18 -3.06 18 0 18 C0 12.06 0 6.12 0 0 Z " fill="#2C3271" transform="translate(332,555)"/>
<path d="M0 0 C0.33 0 0.66 0 1 0 C1 17.49 1 34.98 1 53 C-4.94 53 -10.88 53 -17 53 C-17.07400862 46.77037171 -17.12853486 40.54099776 -17.16479492 34.31103516 C-17.17990645 32.19054712 -17.2003964 30.07009046 -17.22631836 27.94970703 C-17.26259786 24.90649689 -17.27970242 21.86369897 -17.29296875 18.8203125 C-17.30845261 17.86818878 -17.32393646 16.91606506 -17.33988953 15.93508911 C-17.34022942 14.61394608 -17.34022942 14.61394608 -17.34057617 13.26611328 C-17.34723801 12.48889923 -17.35389984 11.71168518 -17.36076355 10.91091919 C-17.24171158 10.28031586 -17.12265961 9.64971252 -17 9 C-16.01 8.34 -15.02 7.68 -14 7 C-14 21.19 -14 35.38 -14 50 C-9.71 50 -5.42 50 -1 50 C-0.67 33.5 -0.34 17 0 0 Z " fill="#585D8B" transform="translate(311,590)"/>
<path d="M0 0 C4.95 0 9.9 0 15 0 C15.66 3.96 16.32 7.92 17 12 C16.34 12 15.68 12 15 12 C12.25624329 9.04518508 12 8.22528092 12 4 C9.03 4 6.06 4 3 4 C3 25.12 3 46.24 3 68 C7.29 68 11.58 68 16 68 C16 68.33 16 68.66 16 69 C11.38 69 6.76 69 2 69 C2 47.22 2 25.44 2 3 C5.96 3 9.92 3 14 3 C14 2.34 14 1.68 14 1 C9.38 1 4.76 1 0 1 C0 0.67 0 0.34 0 0 Z " fill="#4C578C" transform="translate(250,572)"/>
<path d="M0 0 C3 2 3 2 4 5 C4.08610514 6.42718637 4.11771828 7.85806648 4.11352539 9.2878418 C4.11341209 10.57884041 4.11341209 10.57884041 4.11329651 11.8959198 C4.10813522 12.82100845 4.10297394 13.74609711 4.09765625 14.69921875 C4.0962413 15.64940384 4.09482635 16.59958893 4.09336853 17.5785675 C4.08776875 20.61491029 4.07521632 23.65117948 4.0625 26.6875 C4.05748497 28.74544164 4.05292207 30.80338444 4.04882812 32.86132812 C4.0377994 37.90758046 4.02053493 42.95377775 4 48 C2 47 2 47 1 46 C0.87778475 44.55815707 0.82227242 43.11056856 0.79467773 41.66381836 C0.7647599 40.28249977 0.7647599 40.28249977 0.73423767 38.87327576 C0.71752518 37.87224319 0.70081268 36.87121063 0.68359375 35.83984375 C0.66281265 34.82024063 0.64203156 33.80063751 0.62062073 32.75013733 C0.55501148 29.47932952 0.49618766 26.20843863 0.4375 22.9375 C0.39432558 20.72590272 0.35071166 18.51431397 0.30664062 16.30273438 C0.1993186 10.86857849 0.09757377 5.43433918 0 0 Z " fill="#5F6698" transform="translate(538,206)"/>
<path d="M0 0 C0.88042969 -0.00257813 1.76085937 -0.00515625 2.66796875 -0.0078125 C4.8125 0.125 4.8125 0.125 5.8125 1.125 C5.88563567 3.65549402 5.90497527 6.15804837 5.875 8.6875 C5.87048828 9.39841797 5.86597656 10.10933594 5.86132812 10.84179688 C5.84950864 12.60290013 5.83157263 14.36396036 5.8125 16.125 C1.8525 15.795 -2.1075 15.465 -6.1875 15.125 C-6.1875 14.795 -6.1875 14.465 -6.1875 14.125 C-2.8875 14.125 0.4125 14.125 3.8125 14.125 C3.8125 10.495 3.8125 6.865 3.8125 3.125 C-0.8075 3.125 -5.4275 3.125 -10.1875 3.125 C-9.1875 1.125 -9.1875 1.125 -7.44921875 0.5078125 C-4.92910938 0.08126549 -2.55556424 -0.00754967 0 0 Z " fill="#393F79" transform="translate(496.1875,571.875)"/>
<path d="M0 0 C6.33054133 1.1840964 12.57303509 2.11492342 19 2.625 C19 3.285 19 3.945 19 4.625 C9.4742574 5.09605321 -1.82761659 5.0732556 -10 -0.375 C-6.75089431 -1.99955284 -3.44088225 -0.67244082 0 0 Z " fill="#4F5489" transform="translate(394,497.375)"/>
<path d="M0 0 C6.93 0 13.86 0 21 0 C20.67 0.99 20.34 1.98 20 3 C13.73 3 7.46 3 1 3 C0.67 2.01 0.34 1.02 0 0 Z " fill="#2E3778" transform="translate(537,547)"/>
<path d="M0 0 C0.53625 0.680625 1.0725 1.36125 1.625 2.0625 C2.40875 3.031875 3.1925 4.00125 4 5 C4.40089844 5.54269531 4.80179687 6.08539063 5.21484375 6.64453125 C10.00166315 12.79108485 17.17628031 18.56748794 25 20 C25 20.66 25 21.32 25 22 C15.65986754 20.92907044 9.21001704 14.81011664 3.375 7.796875 C0 3.38636364 0 3.38636364 0 0 Z " fill="#393E76" transform="translate(361,475)"/>
<path d="M0 0 C2.62892432 2.42116738 4.45466307 5.09890501 6.4375 8.0625 C11.07252615 14.56020021 16.72670932 19.18002166 23 24 C22.01 24.33 21.02 24.66 20 25 C12.35312017 18.41093855 5.08952192 11.86175582 0 3 C0 2.01 0 1.02 0 0 Z " fill="#3E437A" transform="translate(217,462)"/>
<path d="M0 0 C0.66 0 1.32 0 2 0 C3.2265625 1.72265625 3.2265625 1.72265625 4.625 4.0625 C9.61118145 11.75961506 15.69718878 16.29338785 24 20 C24 20.33 24 20.66 24 21 C18.18884443 21.56643033 15.20106494 18.81982761 10.734375 15.43359375 C5.94882207 11.17445164 2.03745922 6.11237766 0 0 Z " fill="#3D4378" transform="translate(248,299)"/>
<path d="M0 0 C0.33 0.99 0.66 1.98 1 3 C5.95 3.33 10.9 3.66 16 4 C16.33 3.34 16.66 2.68 17 2 C17.33 3.32 17.66 4.64 18 6 C11.4 6 4.8 6 -2 6 C-2 4.68 -2 3.36 -2 2 C-1.34 2 -0.68 2 0 2 C0 1.34 0 0.68 0 0 Z " fill="#464B7A" transform="translate(503,637)"/>
<path d="M0 0 C0 0.66 0 1.32 0 2 C-4.37797727 3.23440366 -8.54244676 3.18390981 -13.0625 3.1875 C-13.87783203 3.19974609 -14.69316406 3.21199219 -15.53320312 3.22460938 C-16.70979492 3.22750977 -16.70979492 3.22750977 -17.91015625 3.23046875 C-18.62308838 3.23457764 -19.33602051 3.23868652 -20.07055664 3.24291992 C-22 3 -22 3 -25 1 C-21.77093849 0.83125405 -18.54173589 0.66537263 -15.3125 0.5 C-14.40048828 0.45230469 -13.48847656 0.40460937 -12.54882812 0.35546875 C-11.66259766 0.31035156 -10.77636719 0.26523437 -9.86328125 0.21875 C-9.05157471 0.17685547 -8.23986816 0.13496094 -7.40356445 0.09179688 C-4.93328996 -0.00254779 -2.47182511 -0.01538879 0 0 Z " fill="#3C4179" transform="translate(427,641)"/>
<path d="M0 0 C0 4.62 0 9.24 0 14 C-0.99 13.67 -1.98 13.34 -3 13 C-2.67 9.7 -2.34 6.4 -2 3 C-3.32 3.33 -4.64 3.66 -6 4 C-8.34114367 3.72686657 -10.67750658 3.40197001 -13 3 C-13 2.67 -13 2.34 -13 2 C-11.20873548 1.66451233 -9.41697413 1.33167645 -7.625 1 C-6.62726563 0.814375 -5.62953125 0.62875 -4.6015625 0.4375 C-2 0 -2 0 0 0 Z " fill="#3C417C" transform="translate(370,628)"/>
<path d="M0 0 C2.875 1.5625 2.875 1.5625 5 4 C5.7055345 6.73329292 5.857662 9.15323992 6 12 C4.98586097 9.97172193 3.98889887 7.97304011 3.125 5.875 C1.67681704 3.46136173 0.66351073 2.88783691 -2 2 C-7.27085586 1.31249706 -9.84013775 2.83058115 -14 6 C-12.98949988 3.33595424 -12.02766415 2.02292172 -9.8125 0.1875 C-6.04656048 -1.40256335 -3.92336227 -1.05090061 0 0 Z " fill="#393E78" transform="translate(253,356)"/>
<path d="M0 0 C0.33 0 0.66 0 1 0 C1.02888514 3.14581423 1.04675923 6.29159469 1.0625 9.4375 C1.07087891 10.33533203 1.07925781 11.23316406 1.08789062 12.15820312 C1.09111328 13.01220703 1.09433594 13.86621094 1.09765625 14.74609375 C1.10289307 15.53685303 1.10812988 16.3276123 1.11352539 17.14233398 C1 19 1 19 0 20 C-2.32817964 20.36760731 -4.6618385 20.70241581 -7 21 C-7.33 23.31 -7.66 25.62 -8 28 C-8.33 28 -8.66 28 -9 28 C-9 24.7 -9 21.4 -9 18 C-6.03 18 -3.06 18 0 18 C0 12.06 0 6.12 0 0 Z " fill="#373D7B" transform="translate(332,555)"/>
<path d="M0 0 C7.76293428 0.48518339 13.17318622 3.7575825 18.4375 9.4375 C20.91297773 12.49662695 21.80514073 15.00538498 22 19 C19.86185787 16.40368455 17.94800994 13.91087418 16.25 11 C12.15572315 5.54096421 6.52147772 2.79340637 0 1 C0 0.67 0 0.34 0 0 Z " fill="#333974" transform="translate(213,573)"/>
<path d="M0 0 C-3.93177905 1.53592773 -7.8712275 3.05111744 -11.8125 4.5625 C-12.93205078 5.00013672 -14.05160156 5.43777344 -15.20507812 5.88867188 C-16.27822266 6.29794922 -17.35136719 6.70722656 -18.45703125 7.12890625 C-19.9416687 7.70233765 -19.9416687 7.70233765 -21.45629883 8.28735352 C-24 9 -24 9 -27 8 C-25.68 7.67 -24.36 7.34 -23 7 C-23 6.34 -23 5.68 -23 5 C-21.87980469 4.65066406 -20.75960938 4.30132812 -19.60546875 3.94140625 C-18.13280778 3.48178595 -16.66015179 3.0221497 -15.1875 2.5625 C-14.44951172 2.33240234 -13.71152344 2.10230469 -12.95117188 1.86523438 C-3.49899945 -1.08589638 -3.49899945 -1.08589638 0 0 Z " fill="#343A76" transform="translate(408,216)"/>
<path d="M0 0 C3.48029939 2.32019959 3.78452754 3.7527819 4.65136719 7.72265625 C5.22832186 11.49144697 5.21069895 15.19628484 5.125 19 C5.11597656 19.77472656 5.10695313 20.54945313 5.09765625 21.34765625 C5.07439388 23.23190843 5.0385364 25.11599832 5 27 C4.67 27 4.34 27 4 27 C3.67 22.38 3.34 17.76 3 13 C2.67 13 2.34 13 2 13 C1.34 8.71 0.68 4.42 0 0 Z " fill="#5E6291" transform="translate(529,308)"/>
<path d="M0 0 C-0.66 0 -1.32 0 -2 0 C-2 0.66 -2 1.32 -2 2 C-2.845625 2.25394531 -3.69125 2.50789062 -4.5625 2.76953125 C-12.171762 5.06559395 -12.171762 5.06559395 -19.625 7.8125 C-23 9 -23 9 -26 8 C-20.01545907 5.4516091 -14.01350558 2.94817861 -7.9375 0.625 C-7.05964844 0.28726563 -6.18179687 -0.05046875 -5.27734375 -0.3984375 C-3 -1 -3 -1 0 0 Z " fill="#2A3170" transform="translate(461,196)"/>
<path d="M0 0 C0.99 0.33 1.98 0.66 3 1 C2.16855469 1.87011719 2.16855469 1.87011719 1.3203125 2.7578125 C-4.18550787 8.59071552 -4.18550787 8.59071552 -7 16 C-7.66 15.67 -8.32 15.34 -9 15 C-8.61731407 8.87702516 -4.1716037 4.1716037 0 0 Z " fill="#3E447C" transform="translate(202,240)"/>
<path d="M0 0 C2.4059834 2.4059834 3.00651586 4.44077654 4.1875 7.625 C6.53766767 13.46523703 9.52632158 17.6165687 14 22 C13.34 22.66 12.68 23.32 12 24 C0 8.67961165 0 8.67961165 0 0 Z " fill="#343A74" transform="translate(160,341)"/>
<path d="M0 0 C0.99 0.33 1.98 0.66 3 1 C4.203125 4.01953125 4.203125 4.01953125 5.25 7.8125 C5.60578125 9.05644531 5.9615625 10.30039063 6.328125 11.58203125 C6.93237053 14.65595472 7.12106606 16.1470306 6 19 C6 18.01 6 17.02 6 16 C5.34 16 4.68 16 4 16 C2.68 10.72 1.36 5.44 0 0 Z " fill="#515688" transform="translate(471,190)"/>
<path d="M0 0 C0.66 0.99 1.32 1.98 2 3 C1.125 6.6875 1.125 6.6875 0 10 C-0.33 10 -0.66 10 -1 10 C-1.33 15.28 -1.66 20.56 -2 26 C-2.33 26 -2.66 26 -3 26 C-3.08174796 23.16607074 -3.14084985 20.33455181 -3.1875 17.5 C-3.21263672 16.70851563 -3.23777344 15.91703125 -3.26367188 15.1015625 C-3.33403498 9.37869682 -2.29297398 5.24796143 0 0 Z " fill="#5F6492" transform="translate(192,253)"/>
<path d="M0 0 C4.95 0 9.9 0 15 0 C15.66 3.96 16.32 7.92 17 12 C16.34 12 15.68 12 15 12 C13 10 13 10 12.8125 6.5 C13 3 13 3 14 1 C9.38 1 4.76 1 0 1 C0 0.67 0 0.34 0 0 Z " fill="#7F83A9" transform="translate(250,572)"/>
<path d="M0 0 C0.99 0.33 1.98 0.66 3 1 C2.48050781 1.43570312 1.96101562 1.87140625 1.42578125 2.3203125 C-2.83222666 5.95654106 -6.55472652 9.58574336 -10 14 C-10.33 13.01 -10.66 12.02 -11 11 C-9.70703125 9.0625 -9.70703125 9.0625 -7.8125 7 C-7.20019531 6.319375 -6.58789062 5.63875 -5.95703125 4.9375 C-4.04671732 3.04625108 -2.2981297 1.40006299 0 0 Z " fill="#3B4178" transform="translate(178,285)"/>
<path d="M0 0 C4.44637912 0.54362664 7.15350055 2.19288756 10.75 4.8125 C11.71421875 5.49957031 12.6784375 6.18664062 13.671875 6.89453125 C16.02195033 9.01985105 16.69450118 9.91029607 17 13 C15.576875 11.700625 15.576875 11.700625 14.125 10.375 C10.34972996 7.1113682 6.2717563 4.65803152 1.94140625 2.19921875 C1.30074219 1.80347656 0.66007812 1.40773437 0 1 C0 0.67 0 0.34 0 0 Z " fill="#363C75" transform="translate(475,233)"/>
<path d="M0 0 C2.71609918 2.71609918 3.46920222 5.86595045 4.625 9.4375 C4.85445312 10.11876953 5.08390625 10.80003906 5.3203125 11.50195312 C6.29042613 14.44982818 7 16.87666842 7 20 C6.34 20 5.68 20 5 20 C0 5.3 0 5.3 0 0 Z " fill="#3F457D" transform="translate(549,566)"/>
<path d="M0 0 C0.33 0 0.66 0 1 0 C1.02909763 3.24998112 1.04683161 6.49992857 1.0625 9.75 C1.07087891 10.67039062 1.07925781 11.59078125 1.08789062 12.5390625 C1.09111328 13.42851562 1.09433594 14.31796875 1.09765625 15.234375 C1.10289307 16.05131836 1.10812988 16.86826172 1.11352539 17.70996094 C1.00299021 19.93968135 0.62055567 21.86133755 0 24 C-0.66 24 -1.32 24 -2 24 C-1.93941406 23.44054687 -1.87882813 22.88109375 -1.81640625 22.3046875 C-1.04062176 14.88102665 -0.50430295 7.44651591 0 0 Z " fill="#343B76" transform="translate(532,320)"/>
<path d="M0 0 C6.94695253 1.29965259 12.30480046 7.01135049 17 12 C16.67 12.99 16.34 13.98 16 15 C14.824375 13.4840625 14.824375 13.4840625 13.625 11.9375 C10.24990203 7.9539108 6.31721074 5.23816518 1.9765625 2.3828125 C1.32429688 1.92648437 0.67203125 1.47015625 0 1 C0 0.67 0 0.34 0 0 Z " fill="#343A74" transform="translate(506,282)"/>
<path d="M0 0 C0.99 0.495 0.99 0.495 2 1 C2 1.99 2 2.98 2 4 C4.97 4 7.94 4 11 4 C11.33 3.01 11.66 2.02 12 1 C12 2.65 12 4.3 12 6 C8.04 6 4.08 6 0 6 C0 4.02 0 2.04 0 0 Z " fill="#4D517F" transform="translate(104,637)"/>
<path d="M0 0 C12.71655539 -1.03262254 12.71655539 -1.03262254 17.25 2.75 C19.56621035 5.0203448 20.41846885 6.81542466 21 10 C20.54109375 9.59007812 20.0821875 9.18015625 19.609375 8.7578125 C18.68898437 7.94957031 18.68898437 7.94957031 17.75 7.125 C17.14671875 6.59132813 16.5434375 6.05765625 15.921875 5.5078125 C12.28146638 2.65171956 9.35239092 1.73834665 4.75 1.375 C3.85796875 1.30023437 2.9659375 1.22546875 2.046875 1.1484375 C1.03367188 1.07496094 1.03367188 1.07496094 0 1 C0 0.67 0 0.34 0 0 Z " fill="#353A77" transform="translate(200,584)"/>
<path d="M0 0 C1.3274855 3.98245651 -0.00092171 6.44789543 -1.4375 10.1875 C-1.68048828 10.84169922 -1.92347656 11.49589844 -2.17382812 12.16992188 C-2.7743293 13.78303286 -3.38609203 15.3919435 -4 17 C-4.66 17 -5.32 17 -6 17 C-5.49487476 10.77012202 -2.67395877 5.54525767 0 0 Z " fill="#41467E" transform="translate(130,601)"/>
<path d="M0 0 C5.57425454 0.13935636 8.36137776 2.59922885 12.36328125 6.11328125 C14.10107946 8.1165188 14.60534001 9.40897136 15 12 C14.34 12 13.68 12 13 12 C12.443125 11.0925 11.88625 10.185 11.3125 9.25 C8.49827035 5.29486644 6.25734616 4.20751282 2 2 C1.34 1.34 0.68 0.68 0 0 Z " fill="#353B75" transform="translate(294,573)"/>
<path d="M0 0 C0.33 0 0.66 0 1 0 C1.02707139 2.24993359 1.04642829 4.49996095 1.0625 6.75 C1.07410156 8.00296875 1.08570313 9.2559375 1.09765625 10.546875 C1.02021027 13.28536501 0.82780815 15.41880293 0 18 C-0.66 18 -1.32 18 -2 18 C-1.03644647 5.33029613 -1.03644647 5.33029613 0 0 Z " fill="#3B427C" transform="translate(480,435)"/>
<path d="M0 0 C2 1 2 1 2.8515625 3.1796875 C3.10679687 4.06914062 3.36203125 4.95859375 3.625 5.875 C4.01558594 7.20144531 4.01558594 7.20144531 4.4140625 8.5546875 C5 11 5 11 5 14 C4.01 13.67 3.02 13.34 2 13 C0.5946484 8.56204759 -0.29241839 4.67869431 0 0 Z " fill="#595D8E" transform="translate(244,285)"/>
<path d="M0 0 C4.3177458 0.50797009 8.03302114 1.19682779 12 3 C12 3.66 12 4.32 12 5 C12.99 5.33 13.98 5.66 15 6 C9.22621075 5.5188509 5.04140164 3.81532819 0 1 C0 0.67 0 0.34 0 0 Z " fill="#4F5487" transform="translate(390,638)"/>
<path d="M0 0 C0.33 0 0.66 0 1 0 C0.85950482 1.47968324 0.71245174 2.95874516 0.5625 4.4375 C0.48128906 5.26121094 0.40007812 6.08492188 0.31640625 6.93359375 C0 9 0 9 -1 10 C-1.23075082 11.34747084 -1.41153063 12.70377565 -1.5625 14.0625 C-1.706875 15.361875 -1.85125 16.66125 -2 18 C-2.33 18 -2.66 18 -3 18 C-3.37634203 11.19796625 -2.77471079 6.24309927 0 0 Z " fill="#363D79" transform="translate(408,259)"/>
<path d="M0 0 C-2.09950586 0.86555948 -4.2047907 1.71711277 -6.3125 2.5625 C-8.07013672 3.27599609 -8.07013672 3.27599609 -9.86328125 4.00390625 C-13 5 -13 5 -16 4 C-15.34 4 -14.68 4 -14 4 C-14 3.34 -14 2.68 -14 2 C-12.23225581 1.46877637 -10.46065917 0.95035927 -8.6875 0.4375 C-7.70136719 0.14746094 -6.71523437 -0.14257812 -5.69921875 -0.44140625 C-3 -1 -3 -1 0 0 Z " fill="#393F7A" transform="translate(228,96)"/>
<path d="M0 0 C0.33 0.66 0.66 1.32 1 2 C1.66 2 2.32 2 3 2 C2.34 4.97 1.68 7.94 1 11 C0.01 10.34 -0.98 9.68 -2 9 C-1.34 6.03 -0.68 3.06 0 0 Z " fill="#555C8E" transform="translate(217,190)"/>
<path d="M0 0 C0.99 0.33 1.98 0.66 3 1 C2.01 1.33 1.02 1.66 0 2 C-1.06716704 3.79932579 -1.06716704 3.79932579 -2 6 C-2.98879205 7.67334039 -3.98648336 9.34151823 -5 11 C-5.68359375 9.234375 -5.68359375 9.234375 -6 7 C-4.78515625 5.078125 -4.78515625 5.078125 -3.0625 3.25 C-2.49660156 2.63640625 -1.93070312 2.0228125 -1.34765625 1.390625 C-0.90292969 0.93171875 -0.45820313 0.4728125 0 0 Z " fill="#3E427B" transform="translate(387,579)"/>
<path d="M0 0 C0.99 0.33 1.98 0.66 3 1 C0.36 3.97 -2.28 6.94 -5 10 C-5.33 8.68 -5.66 7.36 -6 6 C-4.78515625 4.296875 -4.78515625 4.296875 -3.0625 2.75 C-2.21365234 1.96882812 -2.21365234 1.96882812 -1.34765625 1.171875 C-0.90292969 0.78515625 -0.45820313 0.3984375 0 0 Z " fill="#3E447C" transform="translate(437,250)"/>
<path d="M0 0 C0.99 0.66 1.98 1.32 3 2 C2.67 3.65 2.34 5.3 2 7 C1.34 7 0.68 7 0 7 C-0.33 7.99 -0.66 8.98 -1 10 C-1.66 10 -2.32 10 -3 10 C-2.01 6.7 -1.02 3.4 0 0 Z " fill="#595F91" transform="translate(519,591)"/>
<path d="M0 0 C3.375 0.3125 3.375 0.3125 7 1 C9.56687367 4.8503105 8.83288724 6.58569763 8 11 C7.67 11 7.34 11 7 11 C7 8.36 7 5.72 7 3 C4.69 2.67 2.38 2.34 0 2 C0 1.34 0 0.68 0 0 Z " fill="#5B6091" transform="translate(202,431)"/>
<path d="M0 0 C1.25127906 3.54667178 0.72285053 5.72253438 -0.4375 9.25 C-0.72496094 10.14203125 -1.01242188 11.0340625 -1.30859375 11.953125 C-1.53675781 12.62859375 -1.76492187 13.3040625 -2 14 C-2.66 14 -3.32 14 -4 14 C-3.21824485 9.15311808 -1.60155722 4.6233633 0 0 Z " fill="#383D76" transform="translate(216,197)"/>
<path d="M0 0 C0.66 0 1.32 0 2 0 C1.70351562 0.55171875 1.40703125 1.1034375 1.1015625 1.671875 C-0.07628804 4.16123288 -0.85965717 6.6060884 -1.625 9.25 C-1.88539063 10.14203125 -2.14578125 11.0340625 -2.4140625 11.953125 C-2.60742188 12.62859375 -2.80078125 13.3040625 -3 14 C-3.33 14 -3.66 14 -4 14 C-4.49940808 7.88225104 -3.24900602 4.97504047 0 0 Z " fill="#393F7A" transform="translate(192,588)"/>
<path d="M0 0 C1.48454806 0.59082014 2.96254351 1.19812655 4.4375 1.8125 C5.67306641 2.31716797 5.67306641 2.31716797 6.93359375 2.83203125 C9 4 9 4 10 7 C5.49197399 5.74194623 2.5087188 4.09592835 -1 1 C-0.67 0.67 -0.34 0.34 0 0 Z " fill="#4E5285" transform="translate(243,488)"/>
<path d="M0 0 C0.33 0 0.66 0 1 0 C0.25 6.75 0.25 6.75 -2 9 C-2.66 8.67 -3.32 8.34 -4 8 C-2.87548273 5.0280615 -1.77706209 2.66559313 0 0 Z " fill="#4F5688" transform="translate(166,297)"/>
<path d="M0 0 C0.66 1.32 1.32 2.64 2 4 C1.1654738 6.50357861 0.20628008 8.66785852 -1 11 C-1.66 10.67 -2.32 10.34 -3 10 C-2.01 6.7 -1.02 3.4 0 0 Z " fill="#5C6293" transform="translate(511,613)"/>
<path d="M0 0 C1.64936913 0.78427352 3.29441127 1.57765259 4.9375 2.375 C5.85402344 2.81585938 6.77054687 3.25671875 7.71484375 3.7109375 C10 5 10 5 11 7 C6.4923533 6.46968862 3.58045212 4.74778884 0 2 C0 1.34 0 0.68 0 0 Z " fill="#3B4179" transform="translate(250,224)"/>
<path d="M0 0 C0.5775 0.226875 1.155 0.45375 1.75 0.6875 C1.75 1.3475 1.75 2.0075 1.75 2.6875 C0.8425 2.97625 -0.065 3.265 -1 3.5625 C-3.57202908 4.45281776 -5.86346766 5.40244413 -8.25 6.6875 C-6.65594781 2.8352072 -4.57967475 -0.63606594 0 0 Z " fill="#4F5588" transform="translate(487.25,573.3125)"/>
<path d="M0 0 C0 0.33 0 0.66 0 1 C-1.299375 1.3403125 -1.299375 1.3403125 -2.625 1.6875 C-6.61778814 3.24025095 -8.84248305 5.14319895 -12 8 C-9.83199867 1.31532922 -6.98981916 -0.47657858 0 0 Z " fill="#D2D4E0" transform="translate(251,357)"/>
<path d="M0 0 C0.66 0 1.32 0 2 0 C1.39009109 3.55780196 0.4216319 6.6828589 -1 10 C-1.33 10 -1.66 10 -2 10 C-2.17942163 6.05272412 -2.09350689 3.4019487 0 0 Z " fill="#505688" transform="translate(123,618)"/>
<path d="M0 0 C0.66 0.33 1.32 0.66 2 1 C1.45276317 4.37462715 0.9451 6.08235 -1 9 C-1.66 9 -2.32 9 -3 9 C-2.01 6.03 -1.02 3.06 0 0 Z " fill="#505386" transform="translate(454,391)"/>
<path d="M0 0 C0.33 0.99 0.66 1.98 1 3 C-0.98 3.66 -2.96 4.32 -5 5 C-5.33 4.01 -5.66 3.02 -6 2 C-2.25 0 -2.25 0 0 0 Z " fill="#50578B" transform="translate(302,406)"/>
<path d="M0 0 C2.6855594 2.6855594 3.06049974 5.37621328 4 9 C3.01 8.67 2.02 8.34 1 8 C-0.25 5.0625 -0.25 5.0625 -1 2 C-0.67 1.34 -0.34 0.68 0 0 Z " fill="#515689" transform="translate(580,604)"/>
<path d="M0 0 C0.99 0.33 1.98 0.66 3 1 C2.34 1 1.68 1 1 1 C1 1.66 1 2.32 1 3 C-0.2065625 3.433125 -0.2065625 3.433125 -1.4375 3.875 C-4.1326468 4.73262568 -4.1326468 4.73262568 -5 7 C-5 6.01 -5 5.02 -5 4 C-2.6875 1.75 -2.6875 1.75 0 0 Z " fill="#515588" transform="translate(277,572)"/>
<path d="M0 0 C0.33 0 0.66 0 1 0 C0.67 2.64 0.34 5.28 0 8 C-0.99 8.33 -1.98 8.66 -3 9 C-2.01 6.03 -1.02 3.06 0 0 Z " fill="#595D8E" transform="translate(536,547)"/>
<path d="M0 0 C0.66 0 1.32 0 2 0 C2 3.3 2 6.6 2 10 C1.01 9.34 0.02 8.68 -1 8 C-1.25 4.4375 -1.25 4.4375 -1 1 C-0.67 0.67 -0.34 0.34 0 0 Z " fill="#5A5F8F" transform="translate(515,365)"/>
<path d="M0 0 C6.625 -0.25 6.625 -0.25 10 2 C9.67 2.99 9.34 3.98 9 5 C8.2575 4.54625 7.515 4.0925 6.75 3.625 C4.53069422 2.31359204 2.32032178 1.11719197 0 0 Z " fill="#4F5485" transform="translate(440,356)"/>
<path d="M0 0 C2.97 0.99 5.94 1.98 9 3 C7.02 3.99 7.02 3.99 5 5 C2.25 3.75 2.25 3.75 0 2 C0 1.34 0 0.68 0 0 Z " fill="#40457C" transform="translate(185,637)"/>
<path d="M0 0 C1.125 1.75 1.125 1.75 2 4 C1.125 6.25 1.125 6.25 0 8 C-0.66 7.67 -1.32 7.34 -2 7 C-1.34 4.69 -0.68 2.38 0 0 Z " fill="#585D8F" transform="translate(118,593)"/>
<path d="M0 0 C1.485 0.99 1.485 0.99 3 2 C3 2.66 3 3.32 3 4 C3.66 4.33 4.32 4.66 5 5 C5 5.66 5 6.32 5 7 C2.525 6.01 2.525 6.01 0 5 C0 3.35 0 1.7 0 0 Z " fill="#3A4178" transform="translate(132,130)"/>
</svg>
